<svg id="Layer_3" xmlns="http://www.w3.org/2000/svg" viewBox="0 0 719.111 719.117"><defs><style>.cls-1{fill:#231f20;}.cls-2{fill:#097798;}.cls-3{fill:#fff;}.cls-4{fill:#102a4d;}.cls-5{fill:#102b4e;}.cls-6{fill:#c6922c;}.cls-7{fill:none;}</style></defs><g id="tm"><polygon class="cls-1" points="633.03 604.81 640.791 604.81 640.791 624.65 644.795 624.65 644.795 604.81 652.626 604.81 652.626 601.351 633.03 601.351 633.03 604.81"/><polygon class="cls-1" points="673.108 601.351 667.25 619.961 661.188 601.351 655.303 601.351 655.303 624.65 658.983 624.65 658.983 604.81 665.424 624.65 669.048 624.65 675.222 605.097 675.222 624.65 678.874 624.65 678.874 601.351 673.108 601.351"/></g><circle class="cls-2" cx="359.556" cy="359.559" r="359.557"/><circle class="cls-3" cx="359.556" cy="359.559" r="342"/><ellipse class="cls-4" cx="359.556" cy="360.551" rx="334.042" ry="334.224"/><path id="inner_white_circle" class="cls-3" d="M575.355,360.876c0-119.179-96.622-215.8-215.8-215.8s-215.8,96.617-215.8,215.8,96.61,215.8,215.8,215.8S575.355,480.055,575.355,360.876Z" transform="translate(-0.001 0)"/><g id="pillar"><path class="cls-5" d="M297.593,418.275,285,424.192a2.857,2.857,0,0,0-1.41,2.311v93.62a2.856,2.856,0,0,0,1.41,2.3l12.6,5.9a.97.97,0,0,0,1.454-.965V419.24A.97.97,0,0,0,297.593,418.275Z" transform="translate(-0.001 0)"/><path class="cls-5" d="M329.771,409.361,317.4,411.919a2.1,2.1,0,0,0-1.543,1.943V532.755A2.1,2.1,0,0,0,317.4,534.7l12.373,2.558a1.272,1.272,0,0,0,1.555-1.3V410.662A1.278,1.278,0,0,0,329.771,409.361Z" transform="translate(-0.001 0)"/><path class="cls-5" d="M365.372,406.888s-2.832-.07-5.066-.07c-2.971,0-7.225.152-7.225.152a1.668,1.668,0,0,0-1.587,1.644V538a1.663,1.663,0,0,0,1.587,1.644s4.254.152,7.225.152c2.234,0,5.066-.082,5.066-.082a1.641,1.641,0,0,0,1.581-1.625V408.513A1.64,1.64,0,0,0,365.372,406.888Z" transform="translate(-0.001 0)"/><path class="cls-5" d="M401.048,411.4l-12.36-2.388a1.3,1.3,0,0,0-1.562,1.321V536.28a1.3,1.3,0,0,0,1.562,1.326l12.36-2.387A2.052,2.052,0,0,0,402.6,533.3V413.323A2.071,2.071,0,0,0,401.048,411.4Z" transform="translate(-0.001 0)"/><path class="cls-5" d="M434.1,423.364l-12.577-5.676a.988.988,0,0,0-1.466.984v109.25a.991.991,0,0,0,1.466.99L434.1,523.25a2.8,2.8,0,0,0,1.422-2.286V425.649A2.8,2.8,0,0,0,434.1,423.364Z" transform="translate(-0.001 0)"/><path class="cls-5" d="M483.275,349.329H235.832a1.271,1.271,0,0,0-1.295,1.555l5.136,24.518a2.115,2.115,0,0,0,1.949,1.543H477.5a2.117,2.117,0,0,0,1.949-1.543l5.129-24.518A1.272,1.272,0,0,0,483.275,349.329Z" transform="translate(-0.001 0)"/><path class="cls-5" d="M466.212,384.584h-213.3a1.214,1.214,0,0,0-1.238,1.542l2.127,8.9a2.152,2.152,0,0,0,1.974,1.536H463.342a2.153,2.153,0,0,0,1.974-1.536l2.133-8.9A1.211,1.211,0,0,0,466.212,384.584Z" transform="translate(-0.001 0)"/></g><path id="star" class="cls-6" d="M433.073,238.121l-48.305-4.482a6.293,6.293,0,0,1-4.7-3.41L360.885,185.7c-.368-.858-.857-1.276-1.339-1.276s-.965.418-1.334,1.276l-19.184,44.533a6.3,6.3,0,0,1-4.7,3.41l-48.293,4.482c-1.847.178-2.222,1.32-.825,2.545l36.427,32.009a6.287,6.287,0,0,1,1.791,5.517l-10.647,47.334c-.406,1.809.565,2.514,2.165,1.561l41.7-24.771a6.286,6.286,0,0,1,5.8,0l41.709,24.771c1.594.953,2.565.248,2.158-1.561l-10.659-47.334a6.274,6.274,0,0,1,1.8-5.517l36.453-32.009C435.3,239.441,434.927,238.3,433.073,238.121Z" transform="translate(-0.001 0)"/><g id="words"><path class="cls-7" d="M594.93,476.015a9.3,9.3,0,0,0-12.97,3.777l-9.078,16.113,16.741,9.427,9.072-16.118A9.546,9.546,0,0,0,594.93,476.015Z" transform="translate(-0.001 0)"/><path class="cls-7" d="M118.874,439.245c-3.872-11.668-14.721-15.35-26.39-11.478S74.4,441.042,78.27,452.71s14.659,15.478,26.333,11.605S122.747,450.914,118.874,439.245Z" transform="translate(-0.001 0)"/><path class="cls-7" d="M152.829,522.235a9.288,9.288,0,0,0,2.146-13.332L144.3,493.8l-15.674,11.084,10.665,15.1A9.542,9.542,0,0,0,152.829,522.235Z" transform="translate(-0.001 0)"/><path class="cls-7" d="M564.094,573.219c8.869-8.514,7.669-19.89-.838-28.765s-19.9-10.621-28.777-2.108-7.529,19.9.984,28.771S555.219,581.732,564.094,573.219Z" transform="translate(-0.001 0)"/><path class="cls-7" d="M630.458,405.657c-14.049-3.269-22.372,6.475-25.387,19.439l-.781,3.365,39.582,9.218.787-3.365C647.675,421.344,644.513,408.926,630.458,405.657Z" transform="translate(-0.001 0)"/><path class="cls-7" d="M367.167,622.275c.133-5.689-4.152-9.548-9.434-9.669l-18.486-.419-.432,19.191,18.48.426A9.545,9.545,0,0,0,367.167,622.275Z" transform="translate(-0.001 0)"/><path class="cls-7" d="M240.842,584.691l-3.1-1.517L219.911,619.7l3.1,1.518c11.967,5.84,24.778,5.535,31.107-7.435S252.8,590.531,240.842,584.691Z" transform="translate(-0.001 0)"/><path class="cls-3" d="M131.705,434.992c-6.082-18.322-25.7-27.768-44.021-21.693a34.5,34.5,0,1,0,44.021,21.693ZM78.27,452.71c-3.866-11.668,2.546-21.076,14.214-24.943s22.518-.19,26.39,11.478-2.6,21.2-14.271,25.07S82.142,464.379,78.27,452.71Z" transform="translate(-0.001 0)"/><path class="cls-3" d="M128.4,567.232,138.8,536a21,21,0,0,0,23.057-.99c9.707-6.863,12.361-20.182,4.914-30.714l-21.222-30.034L90.3,513.309l8.8,12.443,19.826-14.011,8.2,11.617L117.5,551.8ZM144.3,493.8l10.672,15.1a9.288,9.288,0,0,1-2.146,13.332,9.542,9.542,0,0,1-13.535-2.254l-10.665-15.1Z" transform="translate(-0.001 0)"/><polygon class="cls-3" points="188.83 530.734 145.273 582.524 181.904 613.327 190.341 603.296 165.372 582.302 200.492 540.542 188.83 530.734"/><path class="cls-3" d="M244.213,571.295l-14.252-6.945-29.672,60.818,14.245,6.952c23.559,11.49,45.144,6.424,53.835-11.383S267.772,582.793,244.213,571.295Zm9.91,42.49c-6.329,12.97-19.14,13.275-31.107,7.435l-3.1-1.518,17.827-36.528,3.1,1.517C252.8,590.531,260.446,600.816,254.123,613.785Z" transform="translate(-0.001 0)"/><path class="cls-3" d="M322.76,667.2l15.23.343.552-24.276,14.22.323,17.122,24.677,18.887.425-18.893-26.949a21,21,0,0,0,12.931-19.115c.267-11.878-8.849-21.94-21.749-22.239l-36.764-.831Zm16.487-55.009,18.486.419c5.282.121,9.567,3.98,9.434,9.669A9.545,9.545,0,0,1,357.3,631.8l-18.48-.426Z" transform="translate(-0.001 0)"/><polygon class="cls-3" points="411.798 664.363 459.983 652.288 456.796 639.573 423.391 647.946 419.689 633.167 451.222 625.263 448.035 612.554 416.503 620.457 413.316 607.748 446.721 599.374 443.534 586.665 395.35 598.739 411.798 664.363"/><path class="cls-3" d="M488.758,577.455a50.927,50.927,0,0,1,13.478-4.984L499.188,559.8a58.89,58.89,0,0,0-18.734,6.786c-19.744,10.685-25.749,31.609-16.563,48.578s30.212,23.388,49.778,12.8a57.646,57.646,0,0,0,15.566-12l-8.576-9.446a50.876,50.876,0,0,1-11.548,8.551c-14.646,7.929-25.965,3.663-31.818-7.149S474.112,585.384,488.758,577.455Z" transform="translate(-0.001 0)"/><path class="cls-3" d="M573.445,582.97A34.9,34.9,0,0,0,525.128,532.6c-13.935,13.363-14.03,35.138-.667,49.067S559.517,596.339,573.445,582.97Zm-38.966-40.624c8.875-8.513,20.264-6.767,28.777,2.108s9.707,20.251.838,28.765-20.124,6.767-28.631-2.1S525.6,550.859,534.479,542.346Z" transform="translate(-0.001 0)"/><path class="cls-3" d="M636.8,495.276l9.276-16.467L613.391,482.8a21,21,0,0,0-10.779-20.416c-10.361-5.828-23.54-2.527-29.87,8.723l-18.049,32.053,58.971,33.208,7.479-13.281-21.16-11.922,6.977-12.392Zm-38.1-6.062-9.072,16.118-16.741-9.427,9.078-16.113a9.3,9.3,0,0,1,12.97-3.777A9.546,9.546,0,0,1,598.7,489.214Z" transform="translate(-0.001 0)"/><path class="cls-3" d="M657.172,440.148c5.942-25.533-3.815-45.435-23.114-49.93s-36.853,9.052-42.795,34.586l-3.593,15.439,65.909,15.344Zm-12.513-5.834-.787,3.365-39.582-9.218.781-3.365c3.015-12.964,11.338-22.708,25.387-19.439S647.675,421.344,644.659,434.314Z" transform="translate(-0.001 0)"/><path class="cls-3" d="M647.319,321.036c-12.494.413-14.5,7.4-19.611,21.9-4.837,13.783-5.91,18.093-10.176,18.233-3.961.133-5.4-3.181-5.707-12.723a90.615,90.615,0,0,1,2.012-22.13l-12.462-1.93a97.664,97.664,0,0,0-2.647,24.695c.635,19.191,7.218,27.724,19.712,27.305,11.884-.387,15.49-8.133,20.676-23.559,4.26-12.545,4.946-16.43,9.11-16.563,5.08-.172,7.174,4.844,7.46,13.478.26,7.821-1.181,16.512-3.644,25.126l11.783,2.769a78.7,78.7,0,0,0,4.755-28.524C668.034,332.451,660.009,320.617,647.319,321.036Z" transform="translate(-0.001 0)"/><path class="cls-3" d="M140.217,163.712l-8.983-9.344A85.833,85.833,0,0,0,117.7,168.715c-13.123,17.338-11.656,38.967,4.869,51.473,15.394,11.656,36.5,9.535,50.908-9.5,3.866-5.1,9.452-15.014,11.287-20.13L158.6,170.747l-8.589,11.338,17.344,13.128a61.169,61.169,0,0,1-5.448,8.368c-8.4,11.1-20.333,11.877-30.135,4.456-10.939-8.278-12.19-19.42-2.127-32.707A81.556,81.556,0,0,1,140.217,163.712Z" transform="translate(-0.001 0)"/><path class="cls-3" d="M210.358,156.742c-7.117,5.244-15.769,4.285-21.547-3.568l-23.419-31.837-12.278,9.034L176.533,162.2c9.276,12.608,27.083,16.4,41.894,5.51s16.487-29.031,7.212-41.633l-23.42-31.837-12.278,9.034,23.42,31.837C219.144,142.966,217.481,151.511,210.358,156.742Z" transform="translate(-0.001 0)"/><rect class="cls-3" x="241.502" y="75.955" width="15.239" height="67.663" transform="translate(-23.119 109.946) rotate(-23.816)"/><polygon class="cls-3" points="270.663 64.144 283.366 130.606 298.132 127.781 289.74 83.875 330.268 121.642 344.838 118.855 332.135 52.393 317.368 55.219 325.78 99.226 285.233 61.357 270.663 64.144"/><polygon class="cls-3" points="408.269 101.667 381.371 53.152 366.655 51.311 358.25 118.446 373.169 120.312 378.724 75.956 405.629 124.375 420.344 126.216 428.749 59.082 413.831 57.215 408.269 101.667"/><polygon class="cls-3" points="433.304 130.95 478.86 150.802 484.097 138.784 452.514 125.021 458.602 111.049 488.414 124.037 493.652 112.02 463.84 99.031 469.077 87.013 500.66 100.776 505.898 88.759 460.335 68.908 433.304 130.95"/><path class="cls-3" d="M514.867,162.758c-6.133-4.857-11.827-11.574-16.817-19.027l-9.719,7.206A78.685,78.685,0,0,0,507.014,173c13.059,10.348,27.273,11.885,35.158,1.924,7.757-9.8,3.732-15.833-4.025-29.114-7.39-12.589-9.98-16.2-7.333-19.54,2.464-3.111,5.911-2.063,13.395,3.866a90.05,90.05,0,0,1,15.579,15.846l9.529-8.266a97.522,97.522,0,0,0-17.128-17.979c-15.052-11.922-25.812-12.411-33.57-2.615-7.383,9.319-3.809,17.077,4.609,31,6.812,11.364,9.332,14.4,6.748,17.662C526.821,169.76,521.634,168.122,514.867,162.758Z" transform="translate(-0.001 0)"/><path class="cls-3" d="M619.844,200a97.593,97.593,0,0,0-11.878-21.794c-11.452-15.414-21.718-18.67-31.748-11.217-9.542,7.084-8.094,15.5-3.574,31.126,3.637,12.735,5.282,16.315,1.942,18.8-4.082,3.034-8.659.1-13.807-6.825-4.66-6.278-8.425-14.246-11.313-22.727L538.21,191.8a78.694,78.694,0,0,0,12.335,26.143c9.935,13.376,23.254,18.538,33.45,10.964,10.03-7.447,7.707-14.329,3.65-29.158-3.873-14.075-5.44-18.227-2.012-20.772,3.18-2.362,6.234-.458,11.928,7.205a90.288,90.288,0,0,1,10.945,19.337Z" transform="translate(-0.001 0)"/><polygon class="cls-3" points="50.694 348.445 93.184 361.472 51.145 375.978 51.342 388.065 119.277 403.422 119.029 388.383 79.358 379.787 118.667 366.335 118.502 355.872 78.767 343.715 118.14 333.825 117.893 318.791 50.497 336.351 50.694 348.445"/></g></svg>